Coordinates
version=1
nRows=13
nColumns=40
inDegrees=yes

Units are S.I. units (second, meters, Newtons, ...)
If the header above contains a line with 'inDegrees', this indicates whether rotational values are in degrees (yes) or radians (no).

endheader
time	pelvis_tilt	pelvis_list	pelvis_rotation	pelvis_tx	pelvis_ty	pelvis_tz	hip_flexion_r	hip_adduction_r	hip_rotation_r	knee_angle_r	knee_angle_r_beta	ankle_angle_r	subtalar_angle_r	mtp_angle_r	hip_flexion_l	hip_adduction_l	hip_rotation_l	knee_angle_l	knee_angle_l_beta	ankle_angle_l	subtalar_angle_l	mtp_angle_l	lumbar_extension	lumbar_bending	lumbar_rotation	arm_flex_r	arm_add_r	arm_rot_r	elbow_flex_r	pro_sup_r	wrist_flex_r	wrist_dev_r	arm_flex_l	arm_add_l	arm_rot_l	elbow_flex_l	pro_sup_l	wrist_flex_l	wrist_dev_l
      2.43500000	     -8.52940690	      2.71556978	      2.51754373	     -0.36041139	      0.89578270	     -0.79916626	     35.54537855	     -1.78668150	    -11.93484849	     48.63047568	      0.84876192	      8.89262328	      0.00000000	      0.00000000	     23.69578089	    -11.62189951	      3.13239049	     89.03216056	      1.55390434	    -13.73475273	      0.00000000	      0.00000000	     -8.17078529	      2.21880924	     -2.71740750	     89.01055669	    -17.22187983	     42.69555740	     61.17773171	     83.86364323	      0.00000000	      0.00000000	     89.23855050	     -8.81213529	     39.58487946	     55.23832014	     79.98942091	      0.00000000	      0.00000000
      2.44000000	     -8.64489414	      2.76860763	      2.44548114	     -0.36070901	      0.89459875	     -0.79909198	     35.87572337	     -1.82488661	    -11.82485632	     48.99112135	      0.85505637	      9.07086833	      0.00000000	      0.00000000	     23.82578375	    -11.57296766	      3.08204409	     89.08924264	      1.55490061	    -13.55746540	      0.00000000	      0.00000000	     -8.11910796	      2.14261191	     -2.60882909	     89.04460344	    -17.28158146	     42.34410006	     61.21945711	     87.04068965	      0.00000000	      0.00000000	     89.28059920	     -8.83207761	     39.69066590	     55.36265863	     81.75937070	      0.00000000	      0.00000000
      2.44500000	     -8.74724379	      2.75705013	      2.44802697	     -0.36104170	      0.89346999	     -0.79907403	     36.15500801	     -1.83285721	    -11.80917044	     49.29695160	      0.86039412	      9.23015774	      0.00000000	      0.00000000	     23.98335415	    -11.61591506	      3.06722076	     89.09617604	      1.55502162	    -13.54430143	      0.00000000	      0.00000000	     -8.07203987	      2.14228124	     -2.58899637	     89.09630970	    -17.32240241	     42.34538158	     61.23183159	     87.07169566	      0.00000000	      0.00000000	     89.29571022	     -8.83669953	     39.65870098	     55.46839006	     81.68490820	      0.00000000	      0.00000000
      2.45000000	     -8.73579001	      2.77460302	      2.33999738	     -0.36110640	      0.89241167	     -0.79887996	     36.32292371	     -1.80413560	    -11.70696391	     49.62993853	      0.86620583	      9.34291987	      0.00000000	      0.00000000	     23.94479662	    -11.64357276	      2.97642728	     89.06606773	      1.55449613	    -13.66792722	      0.00000000	      0.00000000	     -8.13113358	      2.09988918	     -2.51590266	     89.12607237	    -17.27138290	     42.32120192	     61.19685759	     86.81064586	      0.00000000	      0.00000000	     89.33345627	     -8.78967475	     39.40715085	     55.33097876	     83.95678859	      0.00000000	      0.00000000
      2.45500000	     -8.85316327	      2.75664102	      2.41068172	     -0.36149733	      0.89124816	     -0.79902060	     36.63831980	     -1.86493838	    -11.74082887	     49.98777295	      0.87245122	      9.51050618	      0.00000000	      0.00000000	     24.16897294	    -11.60478501	      3.09093756	     89.15178282	      1.55599214	    -13.50403626	      0.00000000	      0.00000000	     -8.07743773	      2.14452817	     -2.54241792	     89.19572336	    -17.36704082	     42.39332753	     61.32583799	     86.64435165	      0.00000000	      0.00000000	     89.36221336	     -8.78722659	     39.48931392	     55.43452788	     82.77254253	      0.00000000	      0.00000000
      2.46000000	     -8.96826090	      2.71999516	      2.45971172	     -0.36189965	      0.89008070	     -0.79908593	     36.92445651	     -1.87594717	    -11.77940475	     50.25555265	      0.87712486	      9.64854307	      0.00000000	      0.00000000	     24.38936730	    -11.60989818	      3.17789829	     89.19999827	      1.55683366	    -13.56469774	      0.00000000	      0.00000000	     -8.01799866	      2.17936564	     -2.62445519	     89.20203041	    -17.19748051	     42.11700206	     61.15137548	     86.99545401	      0.00000000	      0.00000000	     89.38599618	     -8.72317623	     39.17889538	     55.33996021	     82.91709586	      0.00000000	      0.00000000
      2.46500000	     -9.04611512	      2.69421430	      2.45729920	     -0.36229409	      0.88898920	     -0.79906637	     37.19607084	     -1.88290068	    -11.81099795	     50.57961320	      0.88278078	      9.75845846	      0.00000000	      0.00000000	     24.52963870	    -11.65633663	      3.16745726	     89.22911223	      1.55734180	    -13.54782007	      0.00000000	      0.00000000	     -8.00933828	      2.19376189	     -2.63526708	     89.25443001	    -17.23305250	     42.19375257	     61.22255527	     86.71164442	      0.00000000	      0.00000000	     89.44450408	     -8.82606072	     39.39083345	     55.55813303	     81.94492740	      0.00000000	      0.00000000
      2.47000000	     -9.09538135	      2.67068506	      2.40552592	     -0.36251296	      0.88785437	     -0.79901054	     37.41656863	     -1.84030358	    -11.72443951	     50.87143880	      0.88787410	      9.92461165	      0.00000000	      0.00000000	     24.60350002	    -11.71235910	      3.17159821	     89.26546378	      1.55797625	    -13.58359297	      0.00000000	      0.00000000	     -8.00158254	      2.22023220	     -2.57433767	     89.27426334	    -17.12669944	     41.95838158	     61.07466685	     87.08375807	      0.00000000	      0.00000000	     89.44270229	     -8.75226454	     39.13533430	     55.44841974	     82.19940961	      0.00000000	      0.00000000
      2.47500000	     -9.15878987	      2.69495479	      2.37981189	     -0.36294378	      0.88680240	     -0.79897420	     37.65489614	     -1.84881396	    -11.63781293	     51.15454936	      0.89281531	     10.06993559	      0.00000000	      0.00000000	     24.73528365	    -11.66684627	      3.15040506	     89.27227290	      1.55809509	    -13.60038877	      0.00000000	      0.00000000	     -8.01981421	      2.18982303	     -2.53268399	     89.31362965	    -17.13584882	     41.89179168	     61.10244073	     86.82138907	      0.00000000	      0.00000000	     89.46695552	     -8.67517136	     38.89482635	     55.37295370	     83.95675876	      0.00000000	      0.00000000
      2.48000000	     -9.23448183	      2.65779909	      2.33894049	     -0.36324656	      0.88564198	     -0.79891847	     37.93115876	     -1.82159573	    -11.62879230	     51.48497821	      0.89858239	     10.20318292	      0.00000000	      0.00000000	     24.85893225	    -11.70892713	      3.17816647	     89.33449563	      1.55918108	    -13.51162260	      0.00000000	      0.00000000	     -7.99867624	      2.22079729	     -2.50359216	     89.33706663	    -17.06461424	     41.74717862	     61.03630627	     86.96462838	      0.00000000	      0.00000000	     89.49789503	     -8.67006125	     38.85111774	     55.39508052	     82.87528401	      0.00000000	      0.00000000
      2.48500000	     -9.30034910	      2.66685762	      2.30759731	     -0.36341316	      0.88458564	     -0.79893437	     38.15800293	     -1.82527952	    -11.55907234	     51.77605378	      0.90366261	     10.31242097	      0.00000000	      0.00000000	     24.93450805	    -11.69530658	      3.16279716	     89.34278960	      1.55932584	    -13.46139480	      0.00000000	      0.00000000	     -7.99060993	      2.20671660	     -2.47512037	     89.37247961	    -17.12737827	     41.83880836	     61.15856928	     86.82169144	      0.00000000	      0.00000000	     89.51175757	     -8.67136812	     38.89383677	     55.50762135	     82.15655134	      0.00000000	      0.00000000
      2.49000000	     -9.35406707	      2.63715760	      2.29500251	     -0.36381940	      0.88354310	     -0.79887926	     38.38953015	     -1.81733308	    -11.58549881	     52.05827290	      0.90858826	     10.46217481	      0.00000000	      0.00000000	     25.05823142	    -11.72634889	      3.21022930	     89.40288604	      1.56037472	    -13.51793209	      0.00000000	      0.00000000	     -8.00828168	      2.24143014	     -2.51103334	     89.38303967	    -16.95784781	     41.55128597	     61.00787174	     87.06693852	      0.00000000	      0.00000000	     89.51933252	     -8.65998783	     38.54756662	     55.42756777	     82.84072676	      0.00000000	      0.00000000
      2.49500000	     -9.43753373	      2.61990346	      2.22768004	     -0.36409297	      0.88239889	     -0.79884461	     38.65202221	     -1.78005050	    -11.52142426	     52.35670117	      0.91379682	     10.59138185	      0.00000000	      0.00000000	     25.18454639	    -11.73939081	      3.20314582	     89.43847847	      1.56099593	    -13.50255535	      0.00000000	      0.00000000	     -7.97824121	      2.26528629	     -2.42596357	     89.40962075	    -16.93989648	     41.49173151	     61.01490627	     86.97424441	      0.00000000	      0.00000000	     89.54233409	     -8.63327843	     38.42839179	     55.41322874	     83.00022247	      0.00000000	      0.00000000
